<?xml version="1.0" encoding="UTF-8" standalone="no"?>
<svg
   xmlns:osb="http://www.openswatchbook.org/uri/2009/osb"
   xmlns:dc="http://purl.org/dc/elements/1.1/"
   xmlns:cc="http://creativecommons.org/ns#"
   xmlns:rdf="http://www.w3.org/1999/02/22-rdf-syntax-ns#"
   xmlns:svg="http://www.w3.org/2000/svg"
   xmlns="http://www.w3.org/2000/svg"
   xmlns:xlink="http://www.w3.org/1999/xlink"
   xmlns:sodipodi="http://sodipodi.sourceforge.net/DTD/sodipodi-0.dtd"
   xmlns:inkscape="http://www.inkscape.org/namespaces/inkscape"
   width="33.014835mm"
   height="28.779072mm"
   viewBox="0 0 33.014836 28.779072"
   version="1.1"
   id="svg8"
   inkscape:version="1.0 (4035a4fb49, 2020-05-01)"
   sodipodi:docname="gyroflow_logo.svg"
   inkscape:export-filename="C:\Users\elvin\Documents\code\smalllogo.png"
   inkscape:export-xdpi="3846.259"
   inkscape:export-ydpi="3846.259">
  <defs
     id="defs2">
    <rect
       id="rect903"
       height="38.44672"
       width="111.50484"
       y="278.21463"
       x="253.33521" />
    <marker
       inkscape:stockid="Arrow2Send"
       orient="auto"
       refY="0"
       refX="0"
       id="Arrow2Send"
       style="overflow:visible"
       inkscape:isstock="true">
      <path
         id="path986"
         style="fill:#ff5300;fill-opacity:1;fill-rule:evenodd;stroke:#ff5300;stroke-width:0.625;stroke-linejoin:round;stroke-opacity:1"
         d="M 8.7185878,4.0337352 -2.2072895,0.01601326 8.7185884,-4.0017078 c -1.7454984,2.3720609 -1.7354408,5.6174519 -6e-7,8.035443 z"
         transform="matrix(-0.3,0,0,-0.3,0.69,0)" />
    </marker>
    <marker
       inkscape:stockid="Arrow2Sstart"
       orient="auto"
       refY="0"
       refX="0"
       id="Arrow2Sstart"
       style="overflow:visible"
       inkscape:isstock="true">
      <path
         id="path983"
         style="fill:#ff5300;fill-opacity:1;fill-rule:evenodd;stroke:#ff5300;stroke-width:0.625;stroke-linejoin:round;stroke-opacity:1"
         d="M 8.7185878,4.0337352 -2.2072895,0.01601326 8.7185884,-4.0017078 c -1.7454984,2.3720609 -1.7354408,5.6174519 -6e-7,8.035443 z"
         transform="matrix(0.3,0,0,0.3,-0.69,0)" />
    </marker>
    <marker
       inkscape:stockid="Arrow2Mend"
       orient="auto"
       refY="0"
       refX="0"
       id="Arrow2Mend"
       style="overflow:visible"
       inkscape:isstock="true">
      <path
         id="path980"
         style="fill:#ff7a00;fill-opacity:1;fill-rule:evenodd;stroke:#ff7a00;stroke-width:0.625;stroke-linejoin:round;stroke-opacity:1"
         d="M 8.7185878,4.0337352 -2.2072895,0.01601326 8.7185884,-4.0017078 c -1.7454984,2.3720609 -1.7354408,5.6174519 -6e-7,8.035443 z"
         transform="scale(-0.6)" />
    </marker>
    <marker
       inkscape:stockid="Arrow2Mstart"
       orient="auto"
       refY="0"
       refX="0"
       id="Arrow2Mstart"
       style="overflow:visible"
       inkscape:isstock="true">
      <path
         id="path977"
         style="fill:#ff7a00;fill-opacity:1;fill-rule:evenodd;stroke:#ff7a00;stroke-width:0.625;stroke-linejoin:round;stroke-opacity:1"
         d="M 8.7185878,4.0337352 -2.2072895,0.01601326 8.7185884,-4.0017078 c -1.7454984,2.3720609 -1.7354408,5.6174519 -6e-7,8.035443 z"
         transform="scale(0.6)" />
    </marker>
    <marker
       inkscape:stockid="Arrow2Lend"
       orient="auto"
       refY="0"
       refX="0"
       id="Arrow2Lend"
       style="overflow:visible"
       inkscape:isstock="true">
      <path
         id="path974"
         style="fill:#000000;fill-opacity:1;fill-rule:evenodd;stroke:#000000;stroke-width:0.625;stroke-linejoin:round;stroke-opacity:1"
         d="M 8.7185878,4.0337352 -2.2072895,0.01601326 8.7185884,-4.0017078 c -1.7454984,2.3720609 -1.7354408,5.6174519 -6e-7,8.035443 z"
         transform="matrix(-1.1,0,0,-1.1,-1.1,0)" />
    </marker>
    <marker
       inkscape:stockid="Arrow2Lstart"
       orient="auto"
       refY="0"
       refX="0"
       id="Arrow2Lstart"
       style="overflow:visible"
       inkscape:isstock="true">
      <path
         id="path971"
         style="fill:#000000;fill-opacity:1;fill-rule:evenodd;stroke:#000000;stroke-width:0.625;stroke-linejoin:round;stroke-opacity:1"
         d="M 8.7185878,4.0337352 -2.2072895,0.01601326 8.7185884,-4.0017078 c -1.7454984,2.3720609 -1.7354408,5.6174519 -6e-7,8.035443 z"
         transform="matrix(1.1,0,0,1.1,1.1,0)" />
    </marker>
    <marker
       inkscape:stockid="Arrow1Lstart"
       orient="auto"
       refY="0"
       refX="0"
       id="Arrow1Lstart"
       style="overflow:visible"
       inkscape:isstock="true">
      <path
         id="path953"
         d="M 0,0 5,-5 -12.5,0 5,5 Z"
         style="fill:#000000;fill-opacity:1;fill-rule:evenodd;stroke:#000000;stroke-width:1pt;stroke-opacity:1"
         transform="matrix(0.8,0,0,0.8,10,0)" />
    </marker>
    <inkscape:path-effect
       lpeversion="1"
       is_visible="true"
       id="path-effect916"
       effect="spiro" />
    <inkscape:path-effect
       effect="spiro"
       id="path-effect897"
       is_visible="true"
       lpeversion="1" />
    <inkscape:path-effect
       lpeversion="1"
       is_visible="true"
       id="path-effect878"
       effect="spiro" />
    <inkscape:path-effect
       effect="spiro"
       id="path-effect859"
       is_visible="true"
       lpeversion="1" />
    <linearGradient
       id="linearGradient837"
       osb:paint="solid">
      <stop
         style="stop-color:#000000;stop-opacity:1;"
         offset="0"
         id="stop835" />
    </linearGradient>
    <linearGradient
       y2="138.81175"
       x2="40.120537"
       y1="138.81175"
       x1="16.386906"
       gradientTransform="translate(6.9490077,4.0758603)"
       gradientUnits="userSpaceOnUse"
       id="linearGradient1056"
       xlink:href="#linearGradient837"
       inkscape:collect="always" />
    <linearGradient
       y2="138.81175"
       x2="40.120537"
       y1="138.81175"
       x1="16.386906"
       gradientTransform="translate(6.9490077,4.0758603)"
       gradientUnits="userSpaceOnUse"
       id="linearGradient1188"
       xlink:href="#linearGradient837"
       inkscape:collect="always" />
  </defs>
  <sodipodi:namedview
     showguides="true"
     id="base"
     pagecolor="#ffffff"
     bordercolor="#666666"
     borderopacity="1.0"
     inkscape:pageopacity="0.0"
     inkscape:pageshadow="2"
     inkscape:zoom="2.8284272"
     inkscape:cx="133.966"
     inkscape:cy="37.85948"
     inkscape:document-units="mm"
     inkscape:current-layer="g1323"
     inkscape:document-rotation="0"
     showgrid="false"
     inkscape:window-width="3200"
     inkscape:window-height="1721"
     inkscape:window-x="2391"
     inkscape:window-y="-9"
     inkscape:window-maximized="1"
     fit-margin-top="0"
     fit-margin-left="0"
     fit-margin-right="0"
     fit-margin-bottom="0" />
  <metadata
     id="metadata5">
    <rdf:RDF>
      <cc:Work
         rdf:about="">
        <dc:format>image/svg+xml</dc:format>
        <dc:type
           rdf:resource="http://purl.org/dc/dcmitype/StillImage" />
        <dc:title></dc:title>
      </cc:Work>
    </rdf:RDF>
  </metadata>
  <g
     inkscape:label="Layer 1"
     inkscape:groupmode="layer"
     id="layer1"
     transform="translate(-223.77519,-282.70617)">
    <g
       id="g1323"
       inkscape:export-xdpi="74.610001"
       inkscape:export-ydpi="74.610001"
       inkscape:export-filename="C:\Users\elvin\Documents\code\gyroflow\largelogo_w400.png">
      <path
         id="path1288"
         d="m 241.4644,311.48301 c -0.18815,-0.0169 -0.33306,-0.0408 -0.50136,-0.0826 -1.01147,-0.25139 -2.11876,-1.04751 -3.248,-2.33524 -1.3771,-1.57038 -2.73948,-3.82444 -3.90451,-6.45998 -0.0407,-0.0922 -0.0765,-0.17391 -0.0796,-0.18162 -0.004,-0.0108 0.0687,0.023 0.31915,0.14795 0.35455,0.17689 0.66602,0.32756 0.98861,0.47823 l 0.20831,0.0973 0.13013,0.26197 c 1.20886,2.43354 2.56706,4.40223 3.87481,5.6165 0.38807,0.36033 0.73803,0.63058 1.09631,0.84662 0.62401,0.37626 1.19821,0.53019 1.67418,0.44882 0.51982,-0.0889 0.9356,-0.45393 1.26306,-1.109 0.36867,-0.7375 0.59435,-1.80504 0.66248,-3.1337 0.004,-0.0781 0.008,-0.14276 0.009,-0.14373 9.7e-4,-9.7e-4 0.0579,0.007 0.1266,0.0178 0.27456,0.043 0.79122,0.11263 0.83606,0.11269 0.01,0 0.0194,0.003 0.0214,0.006 0.005,0.009 -0.0176,0.35036 -0.0394,0.58527 -0.14996,1.62061 -0.55135,2.88717 -1.17712,3.71425 -0.14658,0.19374 -0.34038,0.40016 -0.50014,0.53271 -0.38909,0.32284 -0.79525,0.50304 -1.28123,0.56844 -0.0697,0.009 -0.41111,0.0176 -0.47881,0.0115 z m -10.29274,-2.66442 c -0.11491,-0.0154 -0.26848,-0.0673 -0.36324,-0.1227 -0.16693,-0.0976 -0.2842,-0.21806 -0.39125,-0.40193 -0.38665,-0.66414 -5.53462,-9.58705 -5.55694,-9.63177 -0.15929,-0.31921 -0.13043,-0.70231 0.0759,-1.0077 0.0489,-0.0724 0.17303,-0.19792 0.24326,-0.24603 0.0442,-0.0303 0.71405,-0.42038 0.73688,-0.42914 0.005,-0.002 0.0709,0.058 0.15549,0.14111 0.39339,0.3867 0.80924,0.76269 1.29716,1.17282 0.0762,0.064 0.1047,0.0917 0.0991,0.0962 -0.004,0.003 -0.0793,0.0471 -0.16643,0.0971 -0.0872,0.05 -0.16245,0.0945 -0.16727,0.099 -0.008,0.008 0.38738,0.69552 4.50582,7.82772 l 0.0276,0.0478 1.24679,-0.71978 c 0.68573,-0.39587 1.24775,-0.71977 1.24892,-0.71977 10e-4,0 0.0281,0.0498 0.0597,0.11062 0.24966,0.4794 0.67061,1.22861 0.88389,1.57316 0.0168,0.0271 0.0303,0.0523 0.0302,0.0561 -3.1e-4,0.008 -3.25461,1.88809 -3.3794,1.95229 -0.14653,0.0754 -0.26324,0.10478 -0.43099,0.10858 -0.0599,10e-4 -0.12978,-3.3e-4 -0.1552,-0.004 z m 6.12571,-3.46212 c -0.17042,-0.2718 -0.35667,-0.58356 -0.53347,-0.89298 -0.15943,-0.27901 -0.39158,-0.70276 -0.39117,-0.71401 1.2e-4,-0.003 0.0225,-0.0186 0.0498,-0.0342 l 0.0496,-0.0283 0.19289,0.0804 c 0.64305,0.26805 1.37453,0.54888 2.04695,0.78587 0.11818,0.0417 0.15475,0.0571 0.1486,0.0626 -0.004,0.004 -0.3321,0.19412 -0.72803,0.42238 -0.39592,0.22826 -0.72884,0.4203 -0.73981,0.42676 l -0.0199,0.0118 z m 8.87257,0.0546 c -3.35195,-0.13684 -7.72614,-1.43155 -11.92214,-3.52881 -3.99133,-1.99496 -7.29356,-4.45386 -9.07037,-6.75395 -0.75455,-0.97676 -1.21834,-1.91677 -1.35943,-2.75528 -0.0379,-0.22519 -0.043,-0.2911 -0.0428,-0.55676 1.6e-4,-0.25607 0.004,-0.31103 0.0367,-0.49202 0.0879,-0.49055 0.31718,-0.92728 0.67278,-1.28122 0.22502,-0.22399 0.48778,-0.40895 0.8092,-0.56961 0.95022,-0.47499 2.3064,-0.66267 4.0187,-0.55615 0.13589,0.008 0.296,0.0212 0.59273,0.047 l 0.0479,0.004 1.7e-4,0.15258 c 1.9e-4,0.16778 0.01,0.65686 0.0171,0.84983 l 0.004,0.12267 -0.0852,-0.008 c -0.67617,-0.0657 -1.42924,-0.0828 -1.9938,-0.0454 -1.16718,0.0773 -2.026,0.34117 -2.55915,0.78634 -0.0685,0.0572 -0.18475,0.17466 -0.23473,0.2372 -0.17346,0.21704 -0.27655,0.46624 -0.30702,0.74213 -0.0115,0.10423 -0.005,0.34755 0.0124,0.45984 0.121,0.78284 0.64282,1.7061 1.5528,2.74738 0.25754,0.29469 0.7557,0.80501 1.07008,1.09618 0.37842,0.35049 0.78289,0.69916 1.18877,1.02478 1.9949,1.60041 4.54252,3.1294 7.29111,4.37587 3.9349,1.78444 7.92779,2.81467 10.76165,2.77666 0.5148,-0.007 0.9102,-0.0383 1.31094,-0.10415 0.84191,-0.13832 1.4797,-0.40575 1.87034,-0.78422 0.25701,-0.24901 0.39635,-0.5156 0.4456,-0.85257 0.0137,-0.0938 0.0153,-0.3146 0.003,-0.41976 -0.0802,-0.68923 -0.4913,-1.50631 -1.21427,-2.41314 l -0.0916,-0.11485 0.08,-0.08 c 0.14465,-0.14457 0.24621,-0.28621 0.33674,-0.46963 0.0505,-0.10234 0.12194,-0.29118 0.122,-0.32251 0,-0.007 0.003,-0.0111 0.006,-0.01 0.0124,0.005 0.23724,0.2783 0.36793,0.44799 0.50605,0.65703 0.86813,1.26356 1.10393,1.84919 0.17062,0.42377 0.26688,0.80452 0.30637,1.21188 0.0107,0.11082 0.0108,0.41881 1.2e-4,0.52504 -0.0437,0.43368 -0.17273,0.80601 -0.39492,1.13924 -0.46751,0.70113 -1.31846,1.17029 -2.52203,1.39046 -0.31485,0.0576 -0.64227,0.0958 -1.05008,0.12262 -0.18266,0.012 -0.96397,0.018 -1.18216,0.009 z m -1.4034,-1.98797 c -0.23482,-0.0294 -0.49766,-0.0662 -0.70996,-0.0995 -0.069,-0.0108 -0.13805,-0.0214 -0.15342,-0.0236 -0.0336,-0.005 -0.0278,0.0218 -0.0549,-0.25318 -0.0113,-0.11441 -0.026,-0.25409 -0.0326,-0.3104 -0.007,-0.0563 -0.0102,-0.10439 -0.008,-0.10687 0.007,-0.008 0.93488,-0.54209 0.9458,-0.54503 0.011,-0.003 0.0155,0.0287 0.0592,0.41745 0.0341,0.3025 0.0857,0.85347 0.0857,0.91412 0,0.0244 0.005,0.0242 -0.13208,0.007 z m -3.02146,-0.58505 c -0.50822,-0.13361 -0.95726,-0.26208 -1.44303,-0.41285 -0.22842,-0.0709 -1.01453,-0.33023 -1.03394,-0.34109 -0.008,-0.005 1.08964,-0.64291 2.85871,-1.66186 0.41524,-0.23917 4.34736,-2.50904 4.34921,-2.51064 0.001,-10e-4 -0.23007,-0.40414 -0.51407,-0.89567 -0.70904,-1.22718 -3.60325,-6.24007 -3.83611,-6.6443 -0.10408,-0.18068 -0.19132,-0.32854 -0.19386,-0.32856 -0.003,0 -1.5301,0.88081 -3.39459,1.95741 -5.6664,3.27193 -5.39541,3.11577 -5.39956,3.11163 -0.008,-0.008 -0.12443,-0.51542 -0.20536,-0.8952 -0.0911,-0.42727 -0.23097,-1.1523 -0.22377,-1.1595 0.004,-0.004 0.20887,-0.12259 0.87681,-0.50817 0.3033,-0.17508 2.28557,-1.31938 4.40504,-2.54288 2.42927,-1.40234 3.87805,-2.23496 3.91977,-2.25272 0.37622,-0.16014 0.80918,-0.0743 1.10036,0.21822 0.0308,0.0309 0.0732,0.0802 0.0943,0.10942 0.0211,0.0293 0.18907,0.31397 0.37334,0.63268 0.18427,0.31871 0.47165,0.81574 0.63861,1.10451 0.16696,0.28877 0.35804,0.6194 0.42462,0.73473 0.0666,0.11532 0.12329,0.20968 0.12603,0.20968 0.003,0 1.04595,-1.68433 2.31824,-3.74296 1.2723,-2.05864 2.3299,-3.76665 2.35024,-3.79558 0.0444,-0.0632 0.1452,-0.16631 0.20794,-0.21277 0.17948,-0.13289 0.38356,-0.20022 0.60687,-0.20022 0.32712,0 0.64043,0.16637 0.82035,0.43562 0.05,0.0748 5.67096,9.80883 5.71685,9.90005 0.0377,0.075 0.0657,0.15677 0.0859,0.25096 0.0214,0.10002 0.0214,0.28304 0,0.38305 -0.0441,0.20605 -0.13127,0.36853 -0.27468,0.51224 -0.1574,0.15773 -0.33886,0.25028 -0.55556,0.28335 -0.033,0.005 -2.00635,0.12683 -4.38523,0.27067 -2.37888,0.14384 -4.33786,0.26312 -4.35327,0.26506 l -0.028,0.004 0.0108,0.0211 c 0.006,0.0116 0.35565,0.6184 0.77715,1.34849 0.42149,0.73008 0.77629,1.34897 0.78846,1.3753 0.0338,0.0731 0.0607,0.16185 0.0757,0.24938 0.0189,0.11023 0.0144,0.2837 -0.01,0.38635 -0.0305,0.12839 -0.075,0.23013 -0.15029,0.34373 -0.0525,0.0791 -0.17946,0.20693 -0.257,0.25866 -0.0432,0.0288 -4.13465,2.39428 -5.45182,3.15195 -0.12713,0.0731 -0.42004,0.24203 -0.6509,0.37532 -0.25473,0.14708 -0.42608,0.24217 -0.43588,0.24189 -0.009,-2.6e-4 -0.0667,-0.0138 -0.12841,-0.03 z m 8.3643,-9.90593 c 2.18849,-0.13235 3.98574,-0.24141 3.99389,-0.24236 0.0133,-0.002 -0.19492,-0.36498 -1.98426,-3.46401 -1.09948,-1.90426 -2.0007,-3.4622 -2.00269,-3.4621 -0.002,1e-4 -0.97339,1.5693 -2.15864,3.4871 l -2.15502,3.48692 0.12751,0.22086 0.1275,0.22086 0.0363,-0.003 c 0.02,-0.002 1.82691,-0.1116 4.01539,-0.24395 z m -16.43801,6.68255 c -0.43815,-0.23831 -1.2564,-0.70194 -1.2803,-0.72545 -0.003,-0.003 -0.10017,-0.3056 -0.1725,-0.53803 -0.89433,-2.87397 -1.43321,-5.69629 -1.56173,-8.17938 -0.0217,-0.42014 -0.0262,-0.60429 -0.0262,-1.09631 -1.4e-4,-0.74968 0.0274,-1.27214 0.099,-1.87891 0.13049,-1.10612 0.38215,-2.02459 0.75186,-2.74407 0.20587,-0.40064 0.42233,-0.70567 0.69392,-0.97785 0.21977,-0.22025 0.42234,-0.37136 0.67234,-0.50153 0.81569,-0.42474 1.77248,-0.34196 2.81157,0.24324 1.27348,0.71721 2.67058,2.22775 3.98368,4.30712 0.12724,0.20149 0.30282,0.4876 0.30036,0.48944 -0.0115,0.009 -0.94392,0.54409 -0.94733,0.54401 -0.003,-6e-5 -0.0299,-0.0409 -0.0604,-0.0908 -0.17454,-0.28485 -0.49052,-0.76575 -0.69531,-1.05821 -0.95989,-1.3708 -1.93536,-2.39833 -2.83524,-2.98654 -0.49201,-0.3216 -0.94976,-0.50771 -1.36958,-0.55682 -0.10875,-0.0127 -0.30219,-0.0125 -0.40167,3.8e-4 -0.4844,0.0629 -0.87291,0.3495 -1.19469,0.88136 -0.31184,0.5154 -0.5477,1.27262 -0.67936,2.18102 -0.0556,0.38356 -0.0904,0.76108 -0.11724,1.27311 -0.0115,0.21922 -0.0115,1.25791 -6e-5,1.50577 0.0465,1.00347 0.13042,1.83835 0.28927,2.87946 0.23648,1.54992 0.62478,3.25128 1.11313,4.87725 0.19785,0.65875 0.49363,1.55289 0.69886,2.11267 0.0185,0.0505 0.0328,0.0924 0.0319,0.0933 -9.8e-4,8.2e-4 -0.0479,-0.0236 -0.10416,-0.0542 z m -4.12436,-2.62153 c -0.5134,-0.38791 -0.97151,-0.7619 -1.40509,-1.14708 l -0.10405,-0.0924 0.0182,-0.011 c 0.19813,-0.11975 2.4283,-1.39987 2.43192,-1.39591 0.003,0.003 0.0161,0.0635 0.0296,0.13437 0.0873,0.46006 0.23118,1.11781 0.371,1.69628 0.0275,0.11385 0.0475,0.20927 0.0444,0.21203 -0.007,0.007 -1.22077,0.70614 -1.23202,0.71032 -0.005,0.002 -0.074,-0.0462 -0.15391,-0.10658 z m 5.05226,-5.92969 c -0.14983,-0.0484 -0.74174,-0.21579 -1.06312,-0.30062 -0.34389,-0.0908 -0.91261,-0.22808 -1.12433,-0.27146 l -0.0411,-0.008 -0.003,-0.0268 c -0.0104,-0.0822 -0.0402,-0.57403 -0.0496,-0.8193 -0.004,-0.0981 -0.008,-0.20284 -0.009,-0.2328 -0.002,-0.0408 -4.8e-4,-0.0545 0.006,-0.0545 0.005,0 0.0897,0.018 0.18913,0.0399 1.01202,0.22345 2.02962,0.50615 3.10558,0.86276 l 0.28964,0.096 -0.0255,0.0146 c -0.014,0.008 -0.29663,0.17113 -0.62803,0.36251 -0.3314,0.19138 -0.6063,0.34767 -0.61089,0.34731 -0.005,-3.6e-4 -0.0202,-0.004 -0.0348,-0.009 z"
         style="fill:#ffffff;stroke-width:0.00660426" />
      <text
         style="font-style:normal;font-weight:normal;font-size:10.5833px;line-height:1.25;font-family:sans-serif;white-space:pre;shape-inside:url(#rect903);fill:#000000;fill-opacity:1;stroke:none;"
         id="text901"
         xml:space="preserve" />
    </g>
    <g
       style="opacity:1"
       id="g1028" />
    <g
       style="font-style:normal;font-weight:normal;font-size:17.7805px;line-height:1.25;font-family:sans-serif;fill:#000000;fill-opacity:1;stroke:none;stroke-width:0.444511"
       id="text920-9-1-2"
       aria-label="GYRO" />
  </g>
</svg>
